<svg aria-hidden="true" style="position:absolute;width:0;height:0;overflow:hidden" xmlns="http://www.w3.org/2000/svg">
  <defs>
    <symbol id="icon-email-form" viewBox="0 0 32 32">
      <path d="M26.67 5.33H5.33A2.66 2.66 0 0 0 2.68 8l-.01 16c0 1.47 1.2 2.67 2.67 2.67h21.33c1.46 0 2.66-1.2 2.66-2.67V8c0-1.47-1.2-2.67-2.66-2.67zM26.13 11l-9.42 5.9c-.43.26-1 .26-1.42 0L5.87 11a1.13 1.13 0 1 1 1.2-1.92L16 14.67l8.93-5.59a1.13 1.13 0 1 1 1.2 1.92z"/>
    </symbol>
    <symbol id="icon-phone-form" viewBox="0 0 32 32">
      <path d="m24.88 19.77-3.27-.37a2.56 2.56 0 0 0-2.1.73l-2.37 2.37a19.36 19.36 0 0 1-8.48-8.48l2.38-2.38c.55-.55.82-1.32.73-2.1l-.37-3.25a2.57 2.57 0 0 0-2.56-2.28H6.6a2.55 2.55 0 0 0-2.57 2.67 21.86 21.86 0 0 0 20.44 20.44 2.55 2.55 0 0 0 2.67-2.57v-2.23c0-1.3-.97-2.4-2.27-2.55z"/>
    </symbol>
    <symbol id="icon-person-form" viewBox="0 0 32 32">
      <path d="M16 16a5.33 5.33 0 1 0 0-10.66A5.33 5.33 0 0 0 16 16zm0 2.67c-3.56 0-10.67 1.78-10.67 5.33v1.33c0 .74.6 1.34 1.34 1.34h18.66c.74 0 1.34-.6 1.34-1.34V24c0-3.55-7.11-5.33-10.67-5.33z"/>
    </symbol>

<symbol id="icon-icon-send" viewBox="0 0 32 32">
      <path fill="#fff" style="fill:var(--color1, #fff)" d="M32 0 0 18l10.23 3.79L26 7 14 23.19h.01H14V32l5.74-6.7L27 28l5-28z"/>
    </symbol>

  </defs>
</svg>